<?xml version="1.0" standalone="no"?>
<!DOCTYPE svg PUBLIC "-//W3C//DTD SVG 20010904//EN"
 "http://www.w3.org/TR/2001/REC-SVG-20010904/DTD/svg10.dtd">
<svg version="1.0" xmlns="http://www.w3.org/2000/svg"
 width="976.000000pt" height="534.000000pt" viewBox="0 0 976.000000 534.000000"
 preserveAspectRatio="xMidYMid meet">

<g transform="translate(0.000000,534.000000) scale(0.100000,-0.100000)"
fill="#000000" stroke="none">
<path d="M0 2670 l0 -2670 4880 0 4880 0 0 2670 0 2670 -4880 0 -4880 0 0
-2670z m5255 2000 c174 -47 339 -144 480 -285 137 -136 236 -292 308 -485 197
-527 85 -1146 -278 -1538 -134 -145 -331 -265 -515 -314 -73 -20 -108 -23
-250 -22 -150 1 -173 3 -255 28 -419 127 -725 491 -837 993 -19 84 -22 129
-22 313 0 236 11 314 73 500 146 435 506 770 891 829 102 16 311 6 405 -19z
m-2032 -8 c107 -30 189 -75 246 -138 102 -111 121 -192 121 -516 l0 -238 -365
0 -365 0 0 189 c0 184 -1 191 -23 217 -22 26 -29 27 -128 31 -121 5 -176 -8
-196 -47 -16 -32 -19 -1573 -3 -1615 16 -43 67 -57 193 -53 105 3 110 4 133
31 24 28 24 29 24 268 l0 239 -105 0 -105 0 0 230 0 230 470 0 470 0 0 -517
c0 -553 -3 -596 -51 -699 -30 -63 -130 -163 -193 -193 -27 -12 -83 -32 -125
-44 -73 -20 -97 -21 -531 -22 -401 0 -464 2 -530 18 -217 51 -337 169 -375
370 -22 115 -22 1777 0 1891 41 219 169 335 418 382 54 10 178 12 507 10 412
-2 439 -3 513 -24z m4727 -177 l0 -205 -65 -182 c-36 -101 -78 -219 -94 -263
-16 -44 -52 -144 -80 -223 -28 -78 -73 -204 -100 -280 -27 -75 -144 -402 -259
-727 l-210 -590 -377 -3 c-356 -2 -377 -1 -372 15 2 10 78 214 167 453 89 239
182 489 207 555 100 270 147 395 183 495 21 58 79 213 128 345 l90 240 -454 3
-454 2 0 285 0 285 845 0 845 0 0 -205z m-5670 -3175 l0 -40 -180 0 -180 0 0
-110 0 -110 165 0 165 0 0 -35 0 -35 -162 -2 -163 -3 0 -125 0 -125 188 -3
187 -2 0 -35 0 -35 -235 0 -235 0 0 343 c0 189 3 347 7 350 3 4 105 7 225 7
l218 0 0 -40z m339 -117 c52 -87 124 -209 160 -270 36 -62 69 -113 74 -113 4
0 7 122 7 270 l0 270 45 0 45 0 0 -350 0 -350 -52 0 -53 1 -160 272 -160 272
-3 -272 -2 -273 -45 0 -45 0 0 350 0 350 48 0 48 0 93 -157z m897 133 c59 -27
116 -90 132 -145 18 -59 17 -61 -37 -61 -48 0 -49 1 -55 35 -15 77 -103 134
-190 121 -60 -9 -118 -54 -147 -113 -29 -58 -39 -207 -19 -280 17 -60 62 -118
109 -143 48 -24 139 -27 181 -5 46 24 82 79 88 135 l4 49 -58 3 -59 3 -3 38
-3 37 105 0 106 0 0 -180 0 -180 -34 0 c-29 0 -36 5 -45 30 -5 17 -11 30 -13
30 -2 0 -30 -14 -62 -30 -43 -22 -73 -30 -111 -30 -175 0 -300 130 -312 323
-12 181 63 325 191 371 66 23 172 20 232 -8z m734 -16 l0 -40 -175 0 -175 0 0
-110 0 -110 165 0 165 0 0 -35 0 -35 -165 0 -165 0 0 -130 0 -130 185 0 185 0
0 -35 0 -35 -235 0 -235 0 0 343 c0 189 3 347 7 350 3 4 105 7 225 7 l218 0 0
-40z m376 -177 c71 -120 144 -243 164 -273 l35 -55 3 273 2 272 45 0 45 0 0
-350 0 -350 -49 0 c-57 0 -37 -26 -229 300 -66 113 -127 214 -136 225 -14 18
-15 -6 -16 -252 l0 -273 -45 0 -45 0 0 350 0 350 49 0 49 0 128 -217z m534 67
l0 -150 170 0 170 0 0 150 0 150 45 0 45 0 0 -350 0 -350 -45 0 -45 0 -2 163
-3 162 -165 0 -165 0 -3 -162 -2 -163 -45 0 -45 0 0 350 0 350 45 0 45 0 0
-150z m898 98 c11 -29 55 -141 97 -248 42 -107 92 -233 110 -280 18 -47 36
-93 40 -102 6 -16 1 -18 -41 -18 l-49 0 -40 103 -41 102 -139 0 -138 0 -40
-102 -40 -103 -49 0 -48 0 19 48 c10 26 71 183 136 350 l119 302 42 0 c42 0
43 0 62 -52z m777 33 c70 -32 105 -93 105 -184 0 -92 -33 -140 -128 -183 -2
-1 31 -70 72 -153 42 -83 76 -153 76 -156 0 -3 -20 -5 -45 -5 l-45 0 -75 150
-75 150 -110 0 -110 0 0 -150 0 -150 -45 0 -45 0 0 350 0 350 193 0 c165 0
198 -3 232 -19z m365 -25 c0 -39 -3 -45 -22 -48 l-23 -3 -3 -257 -2 -258 25 0
c23 0 25 -4 25 -45 l0 -45 -90 0 -90 0 0 45 c0 38 3 45 20 45 19 0 20 7 20
260 0 253 -1 260 -20 260 -17 0 -20 7 -20 45 l0 45 90 0 90 0 0 -44z m443 -43
c108 -273 237 -605 237 -609 0 -3 -21 -4 -47 -2 l-48 3 -40 102 -40 103 -136
0 -137 0 -43 -105 -43 -105 -48 0 -48 0 19 48 c11 26 73 183 138 349 l118 303
42 0 41 0 35 -87z"/>
<path d="M4708 3890 c-163 -82 -299 -154 -303 -160 -4 -6 23 -10 79 -10 l86 0
0 -430 0 -430 175 0 175 0 0 160 0 160 105 0 105 0 0 -161 0 -160 34 3 c28 3
53 24 170 148 l136 144 0 283 0 283 88 0 c80 1 85 2 67 16 -31 23 -592 304
-607 303 -7 0 -147 -67 -310 -149z m262 -365 l0 -125 -130 0 -130 0 0 125 0
125 130 0 130 0 0 -125z"/>
<path d="M5450 2979 c-113 -126 -225 -252 -248 -279 l-44 -50 256 0 256 0 0
280 c0 154 -3 280 -7 280 -5 0 -100 -104 -213 -231z m120 -119 l0 -100 -91 0
c-86 0 -89 1 -77 18 17 24 160 182 165 182 1 0 3 -45 3 -100z"/>
<path d="M5990 1209 c0 -2 -22 -63 -50 -134 -27 -71 -50 -131 -50 -132 0 -2
48 -3 106 -3 81 0 105 3 102 13 -79 211 -108 280 -108 256z"/>
<path d="M6500 1150 l0 -120 139 0 c158 0 182 9 201 79 14 52 3 96 -32 132
l-30 29 -139 0 -139 0 0 -120z"/>
<path d="M7513 1078 l-50 -133 100 -3 c55 -1 102 -1 104 2 5 4 -85 247 -97
259 -4 4 -30 -52 -57 -125z"/>
</g>
</svg>
